<?xml version="1.0" encoding="UTF-8" standalone="no"?>
<!-- Created with Inkscape (http://www.inkscape.org/) -->

<svg
   xmlns:dc="http://purl.org/dc/elements/1.1/"
   xmlns:cc="http://creativecommons.org/ns#"
   xmlns:rdf="http://www.w3.org/1999/02/22-rdf-syntax-ns#"
   xmlns:svg="http://www.w3.org/2000/svg"
   xmlns="http://www.w3.org/2000/svg"
   xmlns:sodipodi="http://sodipodi.sourceforge.net/DTD/sodipodi-0.dtd"
   xmlns:inkscape="http://www.inkscape.org/namespaces/inkscape"
   width="210mm"
   height="297mm"
   viewBox="0 0 210 297"
   version="1.1"
   id="svg6492"
   inkscape:version="0.92.1 r15371"
   sodipodi:docname="spainSVG.svg">
  <defs
     id="defs6486" />
  <sodipodi:namedview
     id="base"
     pagecolor="#ffffff"
     bordercolor="#666666"
     borderopacity="1.0"
     inkscape:pageopacity="0.0"
     inkscape:pageshadow="2"
     inkscape:zoom="1.979899"
     inkscape:cx="252.23291"
     inkscape:cy="1076.982"
     inkscape:document-units="mm"
     inkscape:current-layer="layer1"
     showgrid="false"
     inkscape:window-width="1920"
     inkscape:window-height="1027"
     inkscape:window-x="-8"
     inkscape:window-y="-8"
     inkscape:window-maximized="1" />
  <metadata
     id="metadata6489">
    <rdf:RDF>
      <cc:Work
         rdf:about="">
        <dc:format>image/svg+xml</dc:format>
        <dc:type
           rdf:resource="http://purl.org/dc/dcmitype/StillImage" />
        <dc:title></dc:title>
      </cc:Work>
    </rdf:RDF>
  </metadata>
  <g
     inkscape:label="Layer 1"
     inkscape:groupmode="layer"
     id="layer1">
    <path
       inkscape:connector-curvature="0"
       style="fill:#ffffff;stroke:#000000;stroke-width:0.26458332"
       id="path532"
       d="m 23.904367,27.412094 -0.11906,0.0344 -0.25823,0.002 -0.18891,-0.0471 0.0127,-0.0608 0.01,-0.0897 -0.007,-0.0865 -0.0243,-0.0325 -0.0606,-0.0476 -0.0325,-0.008 -0.0392,-0.008 -0.0783,0.008 -0.0212,-0.0132 -0.0767,-0.17119 -0.008,-0.0278 0.003,-0.0294 0.0344,-0.0603 0.0471,-0.0574 0.23204,-0.23997 0.17965,-0.14367 0.15161,-0.0572 0.0786,-0.0275 0.0357,-0.018 0.0265,-0.023 0.0145,-0.0291 0.005,-0.0281 0.0114,-0.14208 -0.0344,-0.0619 -0.0259,-0.0246 -0.61383,-0.46832 -0.0397,-0.0243 -0.29845,0.0828 -0.34449,0.20585 -0.79666,0.11112 -0.40349,0.008 -0.0391,0.003 -0.50271,0.13865 -0.082,0.0328 -0.11245,0.0489 -0.57944,0.43418 -0.0265,0.0278 -0.008,0.0278 -0.003,0.0556 -0.0717,0.0701 -0.0915,0.0653 -0.0653,0.0392 -0.1913,0.0153 -0.18573,0.12091 -0.10134,0.14129 -0.0392,-0.002 -0.0572,-0.0442 -0.0392,-0.29554 -0.0606,-1.02526 0.0132,-0.0291 0.50271,-0.43445 0.21722,-0.15372 0.0884,-0.0373 0.2122,-0.1225 0.46196,-0.28258 0.3773,-0.34131 0.003,-0.0307 -0.11906,-0.0116 -0.11589,0.0212 -0.0735,0.0556 -0.1225,0.1225 -0.0196,0.0278 -0.01,0.031 0.0474,0.0489 0.003,0.0328 -0.0294,0.0212 -0.16987,0.0736 -0.45402,0.12065 -0.19553,0.0341 -0.37094,0.0328 -0.0392,-0.002 -0.031,-0.0196 0.0963,-0.26273 0.18124,-0.18944 0.16669,-0.0556 0.59584,-0.37042 0.11906,-0.0802 0.0931,-0.0783 -0.19421,-0.0688 -0.0818,0.0212 -0.23018,0.11298 -0.0556,0.0474 -0.13811,0.0503 -0.0116,0.0169 -0.0442,0.0106 -0.3302,0.0233 -0.22543,-0.16484 -0.0161,-0.0262 -0.15531,-0.25638 0.0265,-0.0897 0.0733,-0.0818 0.031,-0.0212 0.0849,-0.003 0.0423,0.007 0.0328,0.0196 0.0148,0.0278 0.008,0.0291 -0.01,0.0458 -0.008,0.0294 -0.0394,0.0148 -0.031,0.018 -0.0146,0.0291 0.0177,0.0574 0.041,-0.002 0.15505,-0.0476 0.12726,-0.17462 0.0278,-0.16325 -0.0929,-0.0963 -0.0476,-0.0847 -0.003,-0.0296 0.0376,-0.11404 0.031,-0.0212 0.0394,0.008 0.031,0.018 0.036,-0.0132 0.15002,-0.11747 0.18786,-0.24659 0.16007,-0.21855 0.003,-0.12091 -0.0124,-0.0312 -0.76306,0.23548 -0.3937,0.19261 -0.0291,0.0177 -0.0688,0.0865 -0.008,0.0344 0.006,0.0278 -0.0458,0.0815 -0.3085,0.31512 -0.12568,0.0653 -0.0376,0.002 -0.0736,-0.0243 -0.0328,-0.0212 -0.11747,-0.29713 0.0278,-0.17991 0.12911,-0.35719 0.0587,-0.13891 0.0259,-0.0606 0.0818,-0.0945 0.508,-0.3757 0.0487,-0.0503 -0.56965,0.0995 -0.45879,0.21219 -0.11271,-0.072 -0.10319,-0.0963 -0.0995,-0.15346 0.0257,-0.0246 0.0545,-0.0196 0.0132,-0.22039 -0.11457,-0.31327 -0.11112,-0.19103 -0.13044,-0.1569 -0.0376,0.0148 -0.38709,0.20082 -0.0783,0.0243 -0.13388,-0.0635 0.20108,-0.73316 0.2921,-0.62045 0.0145,-0.0278 0.21881,-0.16668 0.14367,-0.0423 0.0786,-0.0212 0.0376,-0.005 0.2122,0.0407 0.31829,-0.0783 0.48816,-0.1569 0.0966,-0.0521 -0.25479,-0.18442 -0.0148,-0.0312 0.008,-0.031 0.0669,-0.0278 0.10954,-0.0442 0.43418,-0.15345 0.30533,-0.0439 0.24501,0.14208 0.34448,0.0701 0.13388,0.0227 0.0701,-0.0291 0.18785,-0.0653 1.48114,-0.47863 0.44556,-0.11245 0.37729,-0.87524 1.52189,-0.88821 0.63844,-0.35428 0.18917,-0.0474 0.0572,0.0423 0.003,0.0296 0.0291,0.26617 0.23204,-0.0556 0.10133,-0.0328 0.40825,-0.10451 0.2286,-0.006 0.99272,0.0831 0.31168,0.0476 0.57494,0.29528 0.0259,0.023 0.13891,0.15504 0.0505,0.0847 0.17992,0.19606 0.0307,0.023 0.23204,0.1696 0.0767,0.036 0.17304,-0.0344 0.0783,0.002 0.898,0.031 0.0394,0.0114 0.0145,0.0622 0.0132,0.0572 -0.0643,0.27516 -0.003,0.0595 -0.0212,0.0278 -0.2974,0.25797 -0.15663,0.031 -0.0606,-0.0408 -0.11747,-0.007 -0.0571,0.0212 -0.0246,0.0392 -0.0227,0.14208 0.003,0.0278 0.0132,0.0344 0.018,0.0259 0.6059,0.75433 0.61542,0.69559 0.0537,0.0325 0.0939,-0.006 0.22304,-0.0836 0.0489,-0.0228 0.0309,-0.0344 -0.0148,-0.0408 0.0265,-0.0392 0.0439,-0.0312 0.0569,-0.009 0.16034,0.11509 0.0537,0.072 0.0392,0.0815 -0.0489,0.0751 -0.0489,0.0344 -0.17462,0.11589 -0.0508,0.0212 -0.20902,0.0735 -0.0571,-0.005 -0.12621,0.0386 -0.0386,0.0196 -0.2286,0.20796 -0.0262,0.036 -0.003,0.0489 0.0997,0.14711 0.0804,0.0246 0.28046,-0.0246 0.22675,0.003 0.0524,0.0196 0.17621,0.13229 0.0344,0.0344 0.0212,0.27729 -0.0654,0.0312 -0.15346,0.17462 -0.0145,0.0408 -0.007,0.0442 0.0246,0.0392 0.0325,0.036 0.0228,0.0408 0.0164,0.0442 0.003,0.0408 -0.031,0.1225 -0.036,0.0423 -0.24977,0.24501 -0.0376,0.0344 -0.0979,0.0503 -0.0556,0.0132 -0.0571,-0.005 -0.15504,0.0344 -0.263,0.11271 -0.11589,0.12409 -0.0262,0.0392 -0.16007,1.11337 0.54874,0.0751 0.0524,-0.0228 0.013,-0.0423 0.0619,-0.072 0.1733,-0.0196 0.0556,0.0114 0.56251,0.17886 0.0823,0.0661 0.0246,0.0243 0.4064,0.67098 0.01,0.041 -0.031,0.25453 -0.0278,0.0833 -0.31671,0.37042 -0.12726,0.054 -0.0556,-0.0243 -0.18283,-0.0132 -0.0966,0.0442 -0.32491,0.23336 -0.0423,0.0312 -0.50614,0.55033 0.17462,0.16484 0.14023,0.19261 -0.0754,0.25956 -0.11879,0.10107 -0.0669,0.0246 -0.24474,0.008 -0.041,-0.001 -0.0847,-0.036 -0.0246,-0.023 0.003,-0.0291 -0.0669,-0.082 -0.0751,-0.0389 -0.11906,-0.036 -0.0476,-0.0114 -0.0373,0.005 -0.25135,0.0865 -0.0265,0.0246 0.0246,0.2204 0.0492,0.0572 0.006,0.031 -0.0783,0.14367 -0.0799,0.0865 -0.04,-10e-4 -0.35851,0.11906 -0.3691,0.10927 -0.46699,0.12727 -0.0947,0.007 -1.06442,-0.0521 -0.0246,-0.023 0.0164,-0.0619 0.0653,-0.11589 -0.51937,-0.22225 -0.036,-0.0114 -0.0783,0.003 -0.31512,0.041 -0.52732,0.1942 -0.10451,0.0521 -0.0376,0.018 -0.0392,-0.002 -0.24182,-0.16483 -0.0654,0.036 -0.60589,0.27914 -0.11615,0.0452 z"
       sodipodi:nodetypes="ccccccccccccccccccccccccccccccccccccccccccccccccccccccccccccccccccccccccccccccccccccccccccccccccccccccccccccccccccccccccccccccccccccccccccccccccccccccccccccccccccccccccccccccccccccccccccccccccccccccccccccccccccccccccccccccccccccccccccccccccccccccccccccccccccccccccccccccccccccccccccccccccccccccccccccccccccccccccccccccccccccccccccccccccccccccc" />
    <g
       transform="matrix(0.26458333,0,0,0.26458333,-987.00689,-218.58691)"
       style="fill:#ffffff;stroke:#000000"
       id="g758">
      <path
         inkscape:connector-curvature="0"
         id="path754"
         d="m 3973.439,972.073 -0.136,1.024 -0.216,0.982 -0.117,0.308 -1.012,2.549 -0.29,0.259 -0.365,0.197 -0.228,0.025 -0.42,0.006 -0.197,-0.061 -0.364,-0.155 -0.167,-0.13 -0.413,0.007 -0.204,0.061 -0.734,0.5 -0.29,0.272 -1.599,1.79 -0.117,0.363 -0.012,0.044 -0.142,2.054 0.666,0.87 0.71,0.926 2.536,0.827 0.142,0.037 2.364,0.469 0.747,0.08 0.284,-0.024 0.141,0.03 0.216,0.167 -0.388,1.857 -0.062,0.173 -0.265,0.611 -0.186,0.352 -0.148,0.123 -0.179,0.08 -0.271,0.29 -0.105,0.143 -0.537,0.987 -0.179,0.45 0.08,0.642 0.105,0.142 2.598,2.376 0.408,0.037 1.851,-0.099 0.407,-0.043 0.364,-0.265 0.235,-0.044 0.222,0.037 0.438,0.111 0.204,0.118 0.815,1.221 0.166,1.438 0.24,3.005 -0.906,0.5 -0.383,0.105 -0.457,0.05 -1,0.03 -1.258,-0.722 -0.63,-0.432 -0.142,-0.302 0.019,-0.173 0.043,-0.179 -0.16,-0.123 -1.216,-0.352 -1.555,0.383 -3.074,0.827 -0.21,0.074 -0.752,0.413 -0.124,0.13 -0.494,0.53 -1.154,2.567 0.087,0.315 0.179,0.34 0.166,0.5 0.173,1.77 -0.061,0.358 -0.105,0.155 -0.124,0.13 -1.407,1.067 -0.383,0.222 -0.425,0.148 -1.019,0.03 -0.271,-0.06 -0.47,-0.174 -0.123,-0.061 -0.19,-0.204 -0.087,-0.228 -2.277,-0.247 -2.099,1.11 -0.364,0.16 -0.407,0.13 -1.469,0.278 -0.222,-0.012 -0.352,-0.253 -1.265,0.037 -2.462,1.425 -0.809,0.599 -0.136,0.13 -2.295,2.74 -0.105,0.147 -0.191,0.66 -0.025,0.1 -0.18,0.092 -1.08,-0.167 -1.857,-0.45 -1.524,-0.679 0.222,-0.29 1.654,-1.715 0.444,-0.37 0.056,-0.161 0.247,-1.432 0.03,-0.246 -0.098,-0.198 -0.099,-0.142 -0.975,-0.907 0.056,-0.333 -0.044,-0.358 -0.19,-0.642 -1.79,-2.462 -0.112,-0.142 -0.339,-0.21 -0.413,-0.11 -3.284,-0.334 -4.276,1.228 -3.796,0.58 -0.407,0.055 -1.907,-0.246 -0.389,-0.062 -3.382,0.827 -0.506,0.253 -0.672,0.197 -0.42,0.068 -3.332,0.08 -0.414,-0.055 -1.314,-0.24 -0.864,-0.161 -0.735,-0.204 -0.9,0.037 -0.408,0.13 -0.142,0.148 -0.895,0.685 -1.69,0.234 -0.636,0.043 -0.698,-0.018 -4.246,-0.555 -0.388,-0.105 -0.21,-0.031 -0.222,-0.019 -0.698,0.025 -0.185,0.068 -0.05,0.154 -0.018,0.204 0.05,0.327 -0.556,0.481 -2.357,-0.716 -0.235,-0.074 -0.975,-0.333 -0.234,-0.278 -0.216,-0.32 -0.148,-0.16 -0.593,-0.482 -0.63,-0.482 -3.69,-2.153 -0.191,-0.111 -1.222,-0.42 -0.198,-0.05 -0.438,0.032 -0.463,-0.037 -0.771,-0.364 -3.184,-1.882 -0.74,-0.556 -0.075,-0.08 0.808,-0.13 0.408,-0.135 0.166,-0.31 1.53,-2.942 -0.209,-1.574 -0.167,-0.111 -0.555,-1.012 -0.296,-0.84 0.08,-0.172 1.851,-0.926 0.537,-1.586 0.926,-0.777 1.4,0.018 0.21,-1.326 0.544,-1.605 0.771,-1.641 0.074,-0.173 -0.03,-0.16 -0.284,-0.457 -0.124,-0.164 -0.691,0.386 -0.648,0.315 -2.055,0.882 -0.228,0.056 -0.272,-0.006 -0.673,-0.068 -1.282,-0.433 -0.34,-0.234 -2.432,-1.845 -0.47,-0.37 -2.134,-1.74 -0.118,-0.136 0.08,-0.148 0.297,-0.24 0.265,-0.284 0.34,-0.42 0.203,-0.444 0.266,-1.093 0.018,-0.179 -0.635,-1.7 -0.235,-0.034 -0.142,0.007 -0.432,0.043 -0.167,0.043 -0.438,0.315 -0.197,0.173 -0.222,0.333 -0.105,0.086 -0.155,0.043 -0.469,-0.049 -0.604,-0.074 -0.142,-0.074 -0.136,-0.204 -1.247,-2.58 -0.228,-1.184 0.32,-2.801 0.204,-0.895 0.037,-0.111 0.136,-0.05 0.47,-0.086 0.149,-0.002 2.578,0.212 2.79,-0.55 1.64,0.346 0.39,0.148 0.82,-0.185 0.642,-0.376 0.185,-0.118 2.37,-2.4 0.13,-0.315 0.117,-0.166 1.716,-0.05 0.82,0.87 0.075,0.352 0.11,0.136 0.167,0.11 0.519,0.26 0.21,-0.006 0.388,-0.074 0.408,-0.087 0.722,-0.24 0.154,0.173 0.21,0.098 0.413,0.1 0.216,0.03 4.221,-1.086 2.037,-0.525 0.234,-0.147 0.982,-0.322 0.234,-0.067 2.549,0.58 0.716,0.283 0.179,0.093 0.142,0.123 3.721,1.321 1.463,0.475 1.462,0.414 2.29,0.654 0.214,0.197 -0.041,0.389 -0.247,0.58 -0.074,0.099 -0.198,0.197 -2.302,1.654 0.253,0.605 2.216,-1.062 2.462,-1.086 3.27,-0.74 0.655,-0.068 0.21,-0.006 0.173,0.105 0.222,0.302 0.2,0.238 1.404,-0.04 2.481,-0.266 0.432,-0.074 0.192,-0.068 0.203,-0.111 0.519,-0.364 0.13,-0.154 -0.476,-2.827 -0.05,-0.172 -1.08,-3.666 -0.154,-0.284 -1.394,-2.289 -2.987,-2.783 -2.234,-1.863 -1.278,-1.679 0.457,-1.32 0.494,-1.327 0.814,-1.617 0.198,-0.05 0.197,-0.08 -0.03,-0.172 -0.112,-0.142 -0.839,-0.907 -1.105,-0.982 -1.166,-1.024 -0.043,-0.222 -0.013,-0.216 0.365,0.086 0.21,-0.012 2.493,-1.13 0.08,-0.147 0.024,-0.63 4.228,-1.215 0.308,-0.05 5.326,0.247 2.061,0.265 6.122,1.155 0.198,0.086 0.05,0.173 0.135,0.79 2.438,2.227 1.086,0.432 3.425,-0.302 1.216,-0.364 1.043,-0.327 0.77,-0.148 1.106,0.746 0.228,0.08 0.185,-0.098 0.043,-0.16 0.099,-1.186 -0.08,-0.265 0.179,-0.13 0.444,-0.104 1.475,-0.346 0.191,0.111 4.333,2.802 2.962,2.19 0.358,0.438 1.462,2.444 0.105,2.795 -0.222,2.197 -0.537,0.333 -0.37,0.192 -0.593,-0.105 -0.154,-0.155 -0.37,-0.13 -0.772,-0.16 -0.172,0.142 -0.26,0.266 -2.178,3.56 0.019,0.438 3.702,3.154 1.019,0.79 0.66,0.505 0.247,0.031 1.456,0.05 0.45,0.92 -0.166,0.141 -0.043,0.16 0.03,0.161 1.71,2.53 2.641,0.383 0.432,0.043 1.204,-0.192 0.543,-0.154 0.383,0.87 z" />
      <path
         inkscape:connector-curvature="0"
         id="path756"
         d="m 3924.92,956.22 -0.037,-0.074 0.018,-0.086 0.16,-0.136 0.075,-0.03 0.074,0.018 0.08,0.062 -0.074,0.21 -0.176,0.09 z" />
    </g>
    <g
       transform="matrix(0.26458333,0,0,0.26458333,-987.00689,-218.58691)"
       style="fill:#ffffff;stroke:#000000"
       id="g822">
      <path
         inkscape:connector-curvature="0"
         id="path818"
         d="m 3952.265,943.466 -0.592,-2.808 0.185,-0.636 1.135,-1.9 0.167,-0.124 0.21,-0.055 1.055,0.24 0.179,0.093 1.456,-1.981 1.012,-1.715 0.229,-0.062 2.363,-1.234 0.186,-0.16 0.45,-0.92 0.123,-0.346 -0.302,-0.203 -0.234,-0.247 -0.667,-0.864 -0.401,-2.709 -0.03,-0.32 -0.063,-0.852 0.426,-0.611 -0.308,-0.42 0.271,-0.037 1.42,0.185 3.968,1.444 0.518,0.302 0.407,0.118 0.204,0.018 2.71,-0.043 0.968,-0.63 1.494,-1.993 0.148,-0.327 0.055,-0.21 -0.043,-0.166 -0.167,-0.123 -0.203,-0.037 -0.222,0.055 -0.21,-0.037 -0.198,-0.074 -0.962,-1.092 -0.21,-1.586 -0.093,-0.92 0.364,-1.141 1.185,-3.06 0.148,-0.334 1.253,-2.215 0.333,-0.426 1.969,-0.889 2.561,-1.018 4.24,-2.629 0.123,-0.123 0.296,-0.457 0.019,-0.53 -0.019,-0.16 -0.092,-0.167 -0.056,-0.16 0.037,-0.328 0.821,-1.24 0.907,-0.426 0.438,-0.03 0.704,0.097 -0.21,0.217 -0.025,0.105 0.044,0.117 0.179,0.173 0.11,0.105 0.136,0.092 3.345,2.246 0.284,0.062 3.5,-0.395 1.517,-0.672 0.13,-0.1 0.062,-0.104 0.139,-0.279 0.07,0.094 0.105,0.105 0.852,0.487 1.265,0.518 0.568,0.217 0.623,0.172 0.63,0.426 1.345,0.926 0.05,0.148 -0.025,0.13 0.105,0.203 0.148,0.05 1,0.154 0.123,-0.01 0.185,-0.033 2.302,-0.5 0.716,-0.284 0.623,-0.247 0.142,-0.043 0.173,0.012 1.679,0.383 0.172,0.216 0.062,0.117 3.56,0.352 1.531,-0.105 0.167,-0.013 1.13,-0.086 0.79,0.018 1.468,0.068 0.308,0.077 0.143,0.3 0.456,0.907 0.124,0.154 0.172,0.099 0.39,0.16 0.37,5.023 0.049,0.704 -0.278,1.765 -0.905,2.992 -2.168,5.992 -0.443,0.463 -0.847,0.654 -1.524,0.858 -1.395,0.642 -0.74,0.58 -1.105,1.055 -0.124,0.142 0.519,1.382 0.173,0.315 0.222,0.068 0.679,0.061 0.253,-0.067 0.42,-0.007 0.19,0.118 0.266,0.9 0.018,0.16 -0.87,0.76 -1.21,1.055 -0.277,1.228 0.444,0.883 0.278,0.296 0.13,1.758 -0.16,0.809 -1.568,1.703 -0.16,0.111 -1.112,0.611 -0.21,0.012 0.038,2.086 0.58,2.345 0.32,2.265 -0.067,0.154 -0.827,0.975 -0.167,0.13 -1.24,0.888 -0.155,0.173 -0.413,0.068 -1.864,0.234 -0.84,0.093 -1.974,-0.395 -1.265,-0.654 -0.191,-0.124 -4.468,1.765 -0.846,1.456 1.5,0.815 0.154,1.104 -0.592,3.758 -1.512,2.142 -0.395,0.246 -0.809,0.303 -0.21,0.043 -0.814,0.093 -1.938,2.017 -0.086,0.155 -0.84,1.376 -1.45,0.623 -0.84,0.074 -0.425,0.012 -1.981,1.265 -0.105,0.148 -0.074,0.155 -0.111,0.512 0.179,0.574 0.179,0.315 0.16,0.11 0.173,0.568 -0.938,0.519 -0.222,0.043 -0.401,-0.043 -0.389,-0.173 -0.173,-0.111 -0.21,-0.926 0.105,-0.333 0.1,-0.142 -0.507,-0.697 -1.018,-0.377 -0.222,-0.08 -0.235,-0.03 -1.265,0.086 -1,0.191 -0.808,0.012 -0.26,-0.11 -0.382,-0.87 0.537,-0.087 0.864,-0.34 0.37,-0.172 0.124,-0.13 0.098,-0.179 -0.117,-0.315 -0.32,-0.24 -1.112,-0.802 -0.179,-0.08 -0.42,0.018 -0.203,0.086 -0.216,0.05 -0.592,-0.062 -4.185,-0.562 -0.814,-0.185 -0.185,-0.074 -0.45,-0.92 -1.457,-0.049 -0.247,-0.03 -0.66,-0.507 -1.019,-0.79 -3.702,-3.153 -0.019,-0.438 2.178,-3.56 0.26,-0.266 0.172,-0.142 0.772,0.16 0.37,0.13 0.154,0.155 0.173,0.105 0.79,-0.192 0.537,-0.333 0.222,-1.512 -0.105,-3.48 -1.462,-2.444 -0.358,-0.438 -2.962,-2.19 -4.333,-2.802 -0.191,-0.111 -1.475,0.346 -0.444,0.105 -0.18,0.129 z" />
      <path
         inkscape:connector-curvature="0"
         id="path820"
         d="m 3976.685,915.895 -0.025,-0.16 -0.592,-0.544 -0.284,-0.234 -0.21,-0.093 -0.278,0.13 -0.333,0.425 -0.062,0.185 0.111,0.136 0.408,0.1 0.93,0.214 z m -2.771,0.721 0.376,-0.16 0.204,-0.456 -0.043,-0.112 -0.765,0.223 -0.198,0.5 0.193,0.074 z" />
    </g>
    <g
       transform="matrix(0.26458333,0,0,0.26458333,-987.00689,-218.58691)"
       style="fill:#ffffff;stroke:#000000"
       id="g926">
      <path
         inkscape:connector-curvature="0"
         id="path922"
         d="m 3865.867,1054.94 -0.296,-0.259 -2.389,-2.518 -1.524,-2.209 -0.765,-1.45 -0.037,-0.26 0.296,0.297 0.222,0.142 0.142,0.012 0.16,-0.049 0.136,-0.074 0.105,-0.086 0.944,-0.92 -0.086,-0.099 -1.203,-1.295 -0.16,-0.142 -1.321,-0.722 -0.883,-0.148 -0.55,0.092 -0.141,-0.012 -0.407,-0.154 -0.13,-0.056 -0.185,-0.173 -0.593,-1.08 -0.11,-0.21 -0.056,-0.11 -0.192,-0.482 0.044,-0.457 0.098,-0.092 1.815,-2.604 -4.962,-3.524 -3.265,-1.61 -3.974,-1.635 -1.226,-1.25 -0.418,0.204 0.144,0.775 -0.546,-0.296 -1.256,-0.489 -0.598,-0.098 -1.043,-0.068 -1.025,0.074 -1.894,0.203 -0.58,0.068 -0.907,0.173 -0.334,0.185 0.025,0.117 -0.111,0.087 -0.265,0.086 -0.618,0.136 -0.32,-0.247 -0.241,-0.463 -0.498,-1.144 -0.064,-2.527 -0.277,-1.148 -0.315,-0.858 -0.222,-0.537 -0.297,-0.388 -0.407,-0.525 -0.21,-0.134 -0.265,-0.532 1.722,-3.265 0.53,-0.987 0.63,-0.469 0.345,-0.21 1.315,-0.907 0.778,-1 0.148,-0.234 0.549,-1.277 0.037,-0.118 -0.062,-0.913 -0.105,-0.154 0.111,-0.13 0.198,-0.074 0.771,-0.136 1.938,-0.29 2.598,-0.4 0.117,-0.136 1.105,-2.352 0.173,-0.505 0.105,-0.34 0.12,-0.689 2.626,2.016 3,0.475 0.931,0.08 0.407,0.05 0.21,0.074 0.192,0.092 0.432,0.58 0.117,0.333 0.759,0.383 4.184,0.605 3.814,1.314 0.278,-0.24 0.327,-0.204 0.913,-0.494 0.876,-0.062 1.488,-0.148 1.172,-0.271 0.173,-0.099 0.16,-0.117 0.13,-0.185 0.518,-0.84 0.05,-0.172 0.012,-0.16 -0.068,-0.161 -0.314,-0.247 0.03,-0.179 0.315,-0.487 0.167,-0.136 1.345,-1.043 0.204,-0.062 1.253,-0.24 1.036,-0.118 0.47,0.352 0.252,0.266 0.235,0.283 -0.16,0.136 -0.383,0.148 -0.216,0.043 -0.364,0.173 0.142,0.808 0.327,0.204 0.42,0.056 2.591,-1.16 0.642,-0.37 0.506,-0.334 0.253,-1.086 0.031,-0.315 -0.03,-0.339 -0.192,-0.642 -0.278,-0.469 -0.228,-0.586 -0.623,-1.617 0.197,-0.802 0.074,-0.105 0.099,-0.086 0.21,-0.18 3.64,-2.646 2.253,-1.105 1.994,-1.179 0.493,-0.863 -0.105,-0.149 0.013,-0.154 3.147,-0.154 0.074,0.08 0.74,0.556 3.185,1.882 0.771,0.364 0.463,0.037 0.438,-0.031 0.198,0.05 1.222,0.419 0.191,0.11 3.69,2.154 0.63,0.482 0.593,0.481 0.148,0.16 0.216,0.321 0.234,0.278 0.975,0.333 0.235,0.074 2.357,0.716 0.556,-0.481 -0.05,-0.327 0.019,-0.204 0.05,-0.154 0.184,-0.068 0.698,-0.025 0.222,0.019 0.21,0.03 0.388,0.106 4.246,0.555 0.698,0.018 0.635,-0.043 1.691,-0.234 0.895,-0.685 0.142,-0.148 0.407,-0.13 0.901,-0.037 0.735,0.204 0.864,0.16 1.314,0.24 0.414,0.056 3.332,-0.08 0.42,-0.068 0.672,-0.197 0.506,-0.253 3.382,-0.827 0.39,0.062 1.906,0.246 0.407,-0.055 3.796,-0.58 4.276,-1.228 3.284,0.333 0.413,0.111 0.34,0.21 0.11,0.142 1.79,2.462 0.191,0.642 0.044,0.358 -0.056,0.333 0.975,0.907 0.099,0.142 0.099,0.198 -0.031,0.246 -0.247,1.432 -0.056,0.16 -0.444,0.37 -1.654,1.716 -0.222,0.29 1.524,0.679 1.858,0.45 0.876,0.167 0.383,-0.093 1.259,1.26 0.95,0.875 0.16,0.13 1.414,0.753 1.407,-0.019 2.086,0.401 0.506,0.544 -0.124,0.166 -0.222,1.173 -0.061,2.394 0.03,0.352 0.087,0.333 1.104,1.382 0.488,0.592 1.864,2.142 0.895,0.37 0.179,-0.087 0.833,0.143 0.63,0.141 1.486,0.889 0.531,0.346 0.165,0.15 -0.227,0.09 -0.783,0.519 -0.229,0.154 -2.265,2.45 -0.154,0.21 -0.247,0.45 -0.055,0.136 -0.099,0.333 -0.167,0.679 -0.043,0.45 -0.05,0.247 -0.419,0.833 -1.234,2.437 -0.592,0.722 -0.142,0.019 -1.136,0.956 -0.278,0.26 -1.32,1.635 -0.019,0.11 0.01,0.353 -0.024,0.228 -0.08,0.099 -1.18,0.876 -0.277,0.092 -1.296,0.334 -0.204,-0.18 -0.456,-0.468 -0.309,-0.42 -1.117,-1.234 -0.117,-0.08 -0.265,-0.13 -1.006,-0.24 -0.142,-0.013 -2.926,0.24 -1.629,0.34 -0.117,0.074 -0.395,0.408 -0.265,0.29 -0.118,0.228 -0.037,0.111 -0.074,0.265 0.013,0.124 -0.124,0.228 -0.247,0.327 -0.506,0.469 -0.24,0.148 -0.938,0.204 -0.667,0.08 -1.03,0.074 -2.012,-0.376 -0.327,-0.223 -0.105,-0.11 -0.056,-0.118 -0.148,-0.203 -0.179,-0.198 -0.487,-0.253 -0.241,-0.105 -4.357,-0.012 -2.351,0.05 -0.63,0.024 -1.518,0.16 -0.42,0.111 -0.203,0.173 -0.099,0.111 -0.012,0.111 -0.068,0.105 -1.216,0.395 -0.32,0.037 -0.445,0.025 -0.321,-0.012 -0.278,-0.05 -0.154,-0.05 -0.95,-0.425 -1.463,-0.691 -0.278,0.025 -0.71,0.117 -0.66,0.154 -0.136,0.068 -0.42,0.05 -0.69,-0.01 -1.333,-0.308 -0.685,-0.167 -0.722,-0.055 -3.907,0.246 -3.238,0.478 -1.538,0.145 -1.821,0.062 -0.846,-0.154 -0.71,-0.123 -0.147,0.018 -0.142,0.043 -0.654,0.463 -0.062,0.105 -0.556,0.864 -0.518,0.747 -0.216,0.308 -3.067,2.172 -0.296,0.099 -1.376,0.389 -0.142,0.018 -0.877,0.043 -0.16,0.01 -0.45,-0.038 -0.278,-0.067 -0.432,-0.136 -0.414,-0.056 -0.45,-0.043 -1.364,0.043 -0.58,0.16 -2.969,0.951 -0.29,0.105 -1.746,0.642 -0.148,0.055 -0.105,0.068 -0.944,0.87 -2.05,3.043 -0.049,0.11 -0.277,0.692 -0.16,0.567 -0.027,0.209 -0.473,-0.017 -0.569,-0.334 -0.308,-0.024 -0.463,0.012 -0.142,0.025 -0.204,0.191 -0.302,0.562 0.03,0.228 0.272,1.104 0.216,0.18 -0.074,0.11 -0.524,0.414 -3.66,1.024 -4.079,-1.505 -0.222,-0.148 -0.087,-0.1 -0.246,-0.295 -0.155,-0.21 -0.16,-0.192 -0.087,-0.098 -0.308,-0.315 -0.562,-0.568 -0.105,-0.08 -0.604,-0.333 -0.155,-0.043 -2.382,-0.074 -0.158,0.073 z" />
      <path
         inkscape:connector-curvature="0"
         id="path924"
         d="m 3846.094,1033.096 -0.381,-0.484 -0.211,0.113 -0.105,-0.092 -0.241,-0.426 -0.325,-0.558 0.185,-0.043 0.142,0.037 0.216,0.16 0.776,1.132 0.08,0.192 z m 86.12,27.854 0.056,-0.222 0.228,-0.117 0.247,0.013 -0.197,0.259 -0.229,0.11 z" />
    </g>
    <path
       inkscape:connector-curvature="0"
       style="fill:#ffffff;stroke:#000000;stroke-width:0.26458332"
       id="path940"
       d="m 75.323497,22.251394 0.018,-0.0868 0.005,-0.0291 -0.0148,-0.0966 -0.0783,-0.10927 -0.0736,-0.036 -0.0212,-0.18124 0.0931,-0.3183 0.14684,-0.0849 0.1143,-0.0294 0.0458,-0.003 0.60908,0.15346 0.43127,0.11748 1.10516,0.16325 0.0392,0.005 0.17304,0.0929 0.0653,0.0458 0.0458,0.0458 0.005,0.0669 -0.018,0.0278 0.018,0.0291 0.0227,0.0246 0.036,0.0246 0.13546,0.0815 0.86863,-0.031 0.0392,-0.0291 0.18124,0.0275 0.18282,0.15848 0.15849,0.2204 0.16828,0.28734 -0.0669,0.15002 -0.0767,0.17991 0.0161,0.30824 0.14208,0.25003 0.0376,0.0537 0.33814,0.031 0.12409,0.002 0.0489,-0.007 0.66278,-0.17965 0.0392,-0.0212 0.33973,-0.18626 0.0278,-0.0373 0.33152,0.12409 0.41963,0.10768 0.32332,0.13547 0.31009,0.21219 0.0571,0.1569 0.0458,0.0556 0.0653,0.0408 0.0995,0.0619 0.0736,0.0246 0.0392,0.005 0.22543,-0.0278 0.18441,-0.0423 0.13706,-0.11271 0.036,-0.0587 0.007,-0.0294 0.0294,-0.0571 0.0505,-0.054 0.0802,-0.0243 0.65299,-0.09 0.0392,-0.003 0.0669,0.0172 0.30374,0.0953 0.62706,0.22066 0.0228,0.0243 0.15848,0.13547 0.0881,0.0606 0.24183,0.0572 0.0947,0.005 0.73131,-0.0556 0.0476,-0.0897 -0.10319,-0.13071 0.003,-0.0291 0.12409,-0.10133 0.27252,-0.10451 1.32424,-0.35931 0.56012,0.0344 0.0146,0.0294 0.01,0.0587 0.15532,0.11907 0.0963,0.0556 0.0815,0.005 0.30691,-0.0246 0.0754,-0.0132 0.0384,-0.007 -0.05,0.063 -0.0587,0.25638 0.0407,0.12065 0.0278,0.0262 0.10953,0.0735 0.0262,0.0161 0.0259,0.008 0.0246,-0.01 0.0243,-0.0344 0.0669,-0.006 0.0947,-0.002 0.18945,0.031 0.0783,0.0294 0.22067,0.0847 0.0114,0.0214 -0.008,0.0212 -0.18283,0.29395 -0.041,0.0572 -0.0783,0.0865 -0.0212,0.0148 -0.25956,0.049 -0.0571,-0.0148 -0.072,-0.0376 -0.0685,-0.0619 -0.0164,-0.023 -0.0228,-0.0196 -0.0818,-0.0228 -0.0344,0.003 -0.0291,0.007 -0.0669,0.0458 -0.1323,0.14552 -0.0196,0.0439 -0.0114,0.0423 -0.0212,0.10292 -0.003,0.0262 0.0246,0.23654 0.0309,0.0884 0.0833,0.10928 0.0556,0.0148 0.0275,-0.005 0.0833,0.007 0.0278,0.006 0.0736,0.0423 0.0325,0.0362 0.14023,0.17145 0.0265,0.0635 0.0423,0.67098 -0.11112,0.31856 -0.15505,0.14843 -0.30374,0.11112 -0.65617,0.44397 -0.3855,0.28417 -0.0407,0.0278 -0.0442,0.0243 -1.26047,0.51937 -0.23998,0.0865 -0.41645,0.12886 -0.28258,0.0802 -0.11747,0.0408 -1.55602,0.62865 -0.0704,0.0408 -0.0423,0.0376 -0.0294,0.031 -0.036,0.0423 -0.45879,0.55827 -0.0688,0.16033 -0.0212,0.0392 -0.15002,0.0931 -0.0767,0.0408 -0.19103,0.0619 -0.14208,0.0392 -0.21881,0.0328 -0.11112,-0.002 -0.635,0.0717 -0.75459,0.19103 -0.35428,0.0767 -0.15028,0.023 -0.14367,0.0145 -0.20558,0.0196 -0.49636,0.0635 -0.19765,0.0378 -1.03346,0.28893 -0.69056,0.16483 -0.9734,0.2286 -0.27252,0.0847 -0.16828,0.09 -0.12435,0.0947 -0.0408,0.054 -0.0685,0.0963 -0.11271,0.036 -0.0717,0.0556 -1.11205,0.95515 -0.0227,0.0439 -0.005,0.0212 -0.003,0.0212 0.007,0.0212 0.0767,0.0672 0.0587,0.0439 0.0881,0.0556 0.59108,0.21219 0.11112,0.01 0.0571,-0.0161 0.036,-0.0132 0.0897,0.018 0.0376,0.0132 0.0294,0.0228 0.0164,0.0278 -0.10319,0.0995 -0.12382,0.10769 -0.0736,0.0492 -0.95197,0.61383 -0.10927,0.0439 -0.0802,0.0164 -0.0831,0.007 -0.0818,-0.018 -0.0376,-0.0132 -0.0931,-0.0603 0.005,-0.0278 0.0408,-0.0767 0.0391,0.0116 0.0344,0.0161 0.0408,-0.003 0.4392,-0.0376 0.16987,-0.25797 -0.0392,-0.003 -0.204,0.0161 -0.47043,0.0653 -0.0767,0.0164 -0.0847,0.0635 -0.27781,0.25665 -0.13388,0.20717 -0.003,0.0302 -0.31379,-0.11007 -1.06945,-0.50271 -0.0376,-0.0344 -0.0556,-0.0786 0.0114,-0.0408 0.0294,-0.0392 0.0328,-0.0344 0.0458,-0.0275 0.0392,-0.0344 -0.0392,-0.0344 -0.0884,-0.0635 -0.10927,-0.0407 -0.32491,-0.10636 -0.15346,-0.0407 0.32809,-0.23495 0.0442,-0.0344 0.21881,-0.25797 0.018,-0.0408 -0.0849,-0.59928 -0.15346,-0.62045 -0.01,-0.55192 0.0556,-0.003 0.29368,-0.1614 0.0423,-0.0296 0.41486,-0.45058 0.0423,-0.21405 -0.0341,-0.46514 -0.0736,-0.0783 -0.11747,-0.23362 0.0736,-0.32491 0.32015,-0.27914 0.23019,-0.20108 -0.005,-0.0423 -0.0698,-0.23813 -0.0508,-0.0312 -0.11112,0.002 -0.0667,0.0177 -0.17991,-0.0161 -0.0585,-0.018 -0.0458,-0.0833 -0.13732,-0.36565 0.0328,-0.0376 0.2921,-0.27913 0.19606,-0.15346 0.36909,-0.16987 0.40323,-0.22701 0.2241,-0.17304 0.11721,-0.1225 0.57361,-1.58538 0.23945,-0.79163 0.0736,-0.46699 -0.0132,-0.18627 -0.0979,-1.329 -0.10292,-0.0423 -0.0455,-0.0262 -0.0328,-0.0408 -0.12065,-0.23998 -0.0378,-0.0794 z"
       sodipodi:nodetypes="ccccccccccccccccccccccccccccccccccccccccccccccccccccccccccccccccccccccccccccccccccccccccccccccccccccccccccccccccccccccccccccccccccccccccccccccccccccccccccccccccccccccccccccccccccccccccccccccccccccccccccccccccccccccccccccccccccccccccccccccccccccccccccccccccccccccccccccccccccccc" />
    <g
       transform="matrix(0.26458333,0,0,0.26458333,-987.00689,-218.58691)"
       style="fill:#ffffff;stroke:#000000"
       id="g1022">
      <path
         inkscape:connector-curvature="0"
         id="path1018"
         d="m 3892.86,899.301 1.777,-0.043 0.186,-0.08 0.166,-0.111 0.105,-0.148 0.093,-0.765 -0.185,-0.309 0.037,-0.154 0.092,-0.142 2.58,-0.852 0.932,0.173 0.197,0.08 0.84,-0.382 0.022,-1.93 0.298,-0.107 1.697,-0.012 0.772,0.086 1.654,0.161 2.036,-0.124 0.247,-0.037 2.018,-0.413 1.568,-0.58 2.37,-0.562 2.986,-0.549 0.45,0.025 0.112,0.08 0.413,0.395 4.018,-0.895 0.71,0.05 0.166,0.05 2.105,0.894 2.801,1.049 2.234,0.475 1.647,0.964 0.094,0.665 -0.124,0.315 -0.185,0.08 -1.012,0.407 -0.222,-0.061 -0.086,-0.149 -0.142,-0.314 -2.26,0.179 -2.616,1.45 -0.08,0.142 0.142,0.808 0.42,1.21 -0.216,0.03 -0.426,0.025 -1.05,-0.024 -0.431,-0.075 -0.198,-0.104 -0.389,-0.149 -2.005,-0.543 -0.45,0.013 -0.5,0.395 -0.106,0.142 -0.08,0.228 -0.247,0.308 -0.166,0.13 -0.395,0.21 -0.92,0.487 -1.561,0.543 -1.401,0.765 -1.043,0.618 -0.167,0.142 -0.154,0.16 -0.55,1.148 -0.067,0.32 0.123,0.18 0.149,0.141 0.19,0.124 0.23,0.068 0.24,-0.006 0.401,-0.111 0.592,-0.253 0.186,-0.112 0.043,-0.16 0.154,-0.315 0.426,-0.098 0.21,0.055 0.154,0.136 0.42,0.444 0.345,2.327 -0.018,0.16 -0.08,0.154 -0.124,0.142 -2.758,0.778 -0.451,0.055 -2.618,-0.095 -1.61,-0.596 -0.653,-0.463 -0.667,-0.715 -0.136,-0.167 -0.314,-1.432 -0.062,-0.314 -3.487,-2.333 -0.197,-0.086 -0.76,-0.321 -0.216,-0.062 -0.425,0.025 -2.845,0.536 -2.543,0.39 -0.327,-0.075 -2.117,-1.85 -0.13,-0.137 -0.184,-0.34 -0.056,-0.184 0.025,-0.87 0.05,-0.321 0.08,-0.136 z" />
      <path
         inkscape:connector-curvature="0"
         id="path1020"
         d="m 3908.998,907.891 0.08,-0.148 0.043,-0.154 -0.018,-0.155 -0.105,-0.141 -0.234,-0.013 -0.198,0.074 0.08,0.401 0.138,0.163 z m -1.463,-0.241 0.124,-0.135 -0.148,-0.124 -0.21,-0.03 -0.13,0.16 0.153,0.188 z m 19.366,-8.787 -0.099,-0.32 -0.105,-0.68 0.16,-0.314 0.445,-0.087 0.222,0.02 0.155,0.123 0.043,0.154 -0.352,0.975 -0.154,0.154 -0.199,0.127 z" />
    </g>
    <path
       inkscape:connector-curvature="0"
       style="fill:#ffffff;stroke:#000000;stroke-width:0.26458332"
       id="path1030"
       d="m 42.753557,19.103384 -0.1614,-0.0537 -0.0571,-0.0116 -0.0669,0.007 -0.90805,0.32015 -0.0458,0.0344 -0.0945,0.15822 -0.0476,0.17303 -0.68554,0.18601 -0.3511,0.023 -0.85884,0.20902 -0.73157,0.1942 -0.0556,-0.007 -0.49954,-0.10451 -0.10953,-0.0376 -0.0278,-0.0376 -0.11588,-0.0259 -0.0635,-0.005 -0.1405,0.0278 -0.0979,0.0524 -0.1225,0.14526 -0.0265,0.0376 -0.0228,0.0913 -0.0423,0.11588 -0.0521,0.0246 -0.17331,0.005 -0.0619,0.002 -0.17145,-0.003 -0.0571,-0.0161 -0.21219,-0.0672 -0.0884,-0.0423 -0.23337,-0.13705 -0.14208,-0.16986 -0.1389,-0.1061 -0.53049,-0.0423 -0.0423,0.0291 -0.0116,0.0868 0.0148,0.0831 -0.10319,0.0458 -0.11245,0.0262 -0.56356,0.0619 -0.63341,-0.13706 -0.3982,0.0833 -0.11113,0.14685 -0.28892,0.3167 -0.449,0.14711 -0.054,0.0146 -0.0572,0.002 -0.19315,-0.0238 -0.0976,-0.0333 -0.17145,-0.0259 -0.1778,-0.007 -0.82286,0.0783 -0.0979,0.0132 -0.0214,-0.27781 -0.0344,-0.0344 -0.17621,-0.13203 -0.0524,-0.0196 -0.22675,-0.003 -0.28045,0.0246 -0.0804,-0.0246 -0.0998,-0.1471 0.003,-0.049 0.0265,-0.036 0.22833,-0.20797 0.0386,-0.0196 0.12621,-0.0386 0.0572,0.005 0.20902,-0.0738 0.0508,-0.0212 0.17462,-0.11588 0.0489,-0.0344 0.0489,-0.0751 -0.0392,-0.0815 -0.0537,-0.072 -0.16034,-0.1151 -0.0569,0.009 -0.0442,0.0312 -0.0262,0.0392 0.0148,0.0408 -0.031,0.0344 -0.0489,0.0227 -0.22304,0.0836 -0.0939,0.006 -0.0537,-0.0325 -0.61568,-0.69559 -0.6059,-0.75406 -0.0177,-0.0265 -0.0132,-0.0341 -0.003,-0.0278 0.0227,-0.14208 0.0246,-0.0392 0.0571,-0.0212 0.11747,0.007 0.0606,0.0408 0.15664,-0.031 0.29712,-0.25797 0.0212,-0.0278 0.003,-0.0595 0.15081,-0.28998 0.11615,-0.12409 0.32967,-0.0995 1.03849,0.0587 0.97473,0.0556 0.7022,0.0196 0.81492,-0.0114 0.27596,-0.0735 1.1004,0.0458 0.0799,-0.002 0.11272,-0.023 0.77073,-0.16484 0.36089,-0.17303 0.17145,-0.14553 0.44423,0.18151 0.11907,0.13547 0.0556,0.0439 0.0913,0.0606 0.25136,0.16483 0.0754,0.0262 0.0408,0.002 0.12409,-0.007 0.0458,-0.003 0.18785,-0.0294 0.35904,-0.0114 0.52414,-0.01 0.36248,0.008 0.64347,0.10954 0.10266,0.0521 0.0704,0.0392 0.14552,0.13388 0.11721,0.0931 0.041,0.0114 0.0783,-0.002 0.80963,0.0476 0.44926,0.0521 0.57626,0.0733 0.71359,0.11906 0.0802,0.0312 0.0799,0.0228 0.45058,0.0622 0.11272,0.0114 0.25135,0.0212 0.47149,0.0397 -0.006,0.51065 -0.22198,0.10107 -0.0521,-0.0212 -0.24659,-0.0458 -0.68262,0.22542 -0.0243,0.0376 -0.01,0.0407 0.0489,0.0818 -0.0246,0.20241 -0.0278,0.0392 -0.0439,0.0294 -0.0492,0.0212 -0.47016,0.0114 -0.0556,-0.013 z"
       sodipodi:nodetypes="cccccccccccccccccccccccccccccccccccccccccccccccccccccccccccccccccccccccccccccccccccccccccccccccccccccccccccccccccccccccccccccccccccccccccccccccccccccccccccccc" />
    <path
       inkscape:connector-curvature="0"
       style="fill:#ffffff;stroke:#000000;stroke-width:0.26458332"
       id="path1076"
       d="m 29.214297,45.241044 0.47016,-0.31486 0.14208,-0.14711 0.6059,-0.93715 0.0127,-0.0376 -0.037,-0.17806 -0.12753,-0.204 -0.13071,-0.0931 -0.0963,-0.054 -0.11113,-0.0376 -0.0603,-0.008 -0.036,0.0357 -0.0521,0.0196 -0.21881,0.0587 -0.0767,0.003 -0.1061,-0.0262 -0.0508,-0.0146 -0.0392,-0.0328 -0.55033,-0.56648 -0.41619,-0.7739 -0.054,-0.25638 -0.28575,-0.6059 -0.0505,-0.0275 -0.70379,-0.60907 -0.036,-0.0357 -0.10108,-0.16166 -0.023,-0.0394 -0.0325,-0.17277 0.69242,0.11906 0.0423,0.005 0.41143,0.0265 0.0392,-0.005 0.0312,-0.0228 0.10768,-0.0474 0.2368,-0.0899 0.0392,-10e-4 0.32174,0.0291 0.23177,0.0312 0.0799,0.018 0.0376,0.002 0.52017,-0.0214 0.0558,-0.0177 0.18177,-0.0571 0.1614,-0.29237 0.69903,-1.67825 0.003,-0.0669 -0.0701,-0.13229 -0.27252,-0.33787 -0.0344,-0.0344 -0.0458,-0.031 -0.0476,-0.023 -0.0553,0.005 -0.1061,-0.0114 -0.054,-0.0164 -0.10292,-0.0325 -0.0489,-0.0786 -0.0831,-0.2839 0.0963,-0.20585 0.0291,-0.0474 0.34872,-0.16536 0.21325,0.0153 0.1614,-0.023 0.0524,-0.018 0.0683,-0.0482 0.0966,0.10054 0.0606,0.0291 0.12065,0.0394 0.0556,0.0114 0.25797,0.003 1.0205,-0.16325 0.059,-0.0196 0.14023,-0.0865 0.0212,-0.0865 -0.0259,-0.0439 -0.0344,-0.036 -0.003,-0.0423 0.0799,-0.0751 0.18468,-0.11112 1.63777,-0.74613 0.0503,-0.018 0.21087,0.0442 0.23019,0.13044 0.29898,0.2466 0.23178,0.38708 0.43259,0.25453 0.0979,0.0392 0.26458,0.0931 0.1143,0.0164 0.0407,-0.0344 0.0376,-0.0392 0.0278,-0.0392 0.0246,-0.0474 -0.003,-0.0423 0.0177,-0.0423 0.15531,-0.0556 0.36407,-0.12091 0.81809,0.46699 0.26459,0.1942 0.0881,0.1225 0.30851,0.12065 0.0603,0.008 0.16007,-0.0212 0.17463,-0.0325 0.65643,-0.0868 0.008,0.31195 0.0947,0.15345 0.0654,0.0783 0.0511,0.0535 -0.0397,5.3e-4 -0.12409,0.0228 -0.036,0.0132 -0.01,0.0291 -0.0537,0.23707 -0.0849,0.7411 0.0603,0.31353 0.32994,0.68262 0.036,0.0537 0.0376,0.0196 0.15981,0.0196 0.12436,0.0132 0.0407,-0.0116 0.0278,-0.0228 0.0587,-0.0881 0.0521,-0.0458 0.11589,-0.0833 0.0442,-0.0114 0.1143,-0.0114 0.0376,-0.002 0.0622,0.009 0.16801,0.44979 -0.005,0.0471 -0.0704,0.28919 -0.0537,0.11748 -0.09,0.11112 -0.0701,0.0749 -0.0783,0.0638 -0.0212,0.0392 0.031,0.036 0.56489,0.46037 0.12409,0.0979 0.6432,0.48815 0.0902,0.0619 0.3392,0.11456 0.17806,0.018 0.072,0.002 0.0603,-0.0148 0.54372,-0.23336 0.17145,-0.0833 0.18283,-0.10213 0.0328,0.0434 0.0749,0.12091 0.008,0.0423 -0.0196,0.0458 -0.204,0.43418 -0.14366,0.42466 -0.0556,0.35083 -0.37068,-0.005 -0.245,0.20558 -0.14208,0.41963 -0.48975,0.24501 -0.0212,0.0458 0.0783,0.22199 0.14685,0.26775 0.0442,0.0294 0.0556,0.41646 -0.40481,0.77867 -0.0442,0.0817 -0.10795,0.0357 -0.21379,0.0344 -0.83264,0.0407 -0.003,0.0408 0.0278,0.0394 -0.13044,0.22834 -0.52758,0.31194 -0.59584,0.29236 -0.96335,0.70036 -0.0556,0.0474 -0.0262,0.0228 -0.0196,0.0278 -0.0521,0.18283 0.16484,0.4572 0.0603,0.15505 0.0735,0.12435 0.0505,0.1696 0.008,0.09 -0.008,0.0831 -0.0672,0.28734 -0.13388,0.0881 -0.16987,0.0979 -0.6858,0.30692 -0.11112,-0.0145 -0.0863,-0.054 -0.0376,-0.21378 0.0963,-0.0458 0.0571,-0.0114 0.10107,-0.0392 0.0423,-0.036 -0.0619,-0.0749 -0.0669,-0.0704 -0.12409,-0.0931 -0.2741,0.0312 -0.33153,0.0635 -0.054,0.0164 -0.35587,0.27596 -0.0442,0.036 -0.0833,0.12885 -0.008,0.0476 0.0831,0.0651 0.018,0.0423 -0.003,0.0423 -0.0132,0.046 -0.13705,0.22198 -0.0344,0.0489 -0.0423,0.031 -0.0458,0.0262 -0.31009,0.0717 -0.3937,0.0392 -0.23178,0.0164 -0.24156,0.13071 -0.0865,0.054 -0.0736,0.0635 -1.00912,-0.34766 -1.10701,-0.16007 -0.20109,-0.10134 -0.0307,-0.0881 -0.1143,-0.15346 -0.0508,-0.0243 -0.0556,-0.0196 -0.10769,-0.0132 -0.24659,-0.0212 -0.79348,-0.12568 -0.6948,-0.5334 -0.0399,-0.0511 -0.0423,-0.003 -0.0802,0.0148 -0.18786,0.0376 -0.0995,0.0521 -0.008,0.0294 -0.0312,0.023 -0.0669,0.0243 -0.31036,0.0751 -0.0392,0.003 -0.0783,-0.0572 -0.007,-0.0291 -0.16324,-0.21563 -0.0881,-0.11906 -0.14552,-0.22543 -0.13229,-0.21061 -0.48313,-0.56674 -0.0376,-0.0325 -0.0474,-0.0278 -0.09,-0.0521 -0.0521,-0.0246 -0.0474,-0.0556 0.31697,-1.49225 0.01,-0.0291 0.0309,-0.0868 0.018,-0.031 0.0685,-0.0328 0.22463,-0.0902 z"
       sodipodi:nodetypes="ccccccccccccccccccccccccccccccccccccccccccccccccccccccccccccccccccccccccccccccccccccccccccccccccccccccccccccccccccccccccccccccccccccccccccccccccccccccccccccccccccccccccccccccccccccccccccccccccccccccccccccccccccccccccccccccccccccccccccccccccccccccccccccccccccccc" />
    <g
       transform="matrix(0.26458333,0,0,0.26458333,-987.00689,-218.58691)"
       style="fill:#ffffff;stroke:#000000"
       id="g1206">
      <path
         inkscape:connector-curvature="0"
         id="path1202"
         d="m 3954.462,944.798 -0.099,1.185 -0.043,0.16 -0.185,0.1 -0.228,-0.08 -1.105,-0.747 -0.771,0.148 -1.043,0.327 -1.216,0.364 -1.395,0.302 -3.116,-0.432 -2.438,-2.228 -0.136,-0.79 -0.05,-0.172 -0.197,-0.086 -6.122,-1.155 -2.06,-0.265 -5.327,-0.247 -0.308,0.05 -4.228,1.215 -0.024,0.63 -0.08,0.148 -2.494,1.129 -0.21,0.012 -0.364,-0.086 -0.253,-0.018 -0.857,0.148 -0.741,0.407 -2.357,1.69 -3.617,2.123 -0.969,0.975 -0.327,0.624 0.13,0.135 0.043,0.16 0.012,0.161 -0.043,0.155 -0.586,1.66 -0.124,0.13 -0.179,0.08 -0.647,0.092 -0.204,0.006 -0.377,-0.166 -0.179,-0.112 -0.21,0.044 -0.555,0.283 -1.802,2.092 -2.536,1.852 -0.932,1.19 -0.012,0.155 0.123,0.432 0.093,0.333 -0.044,2.024 -0.185,0.086 -0.228,0.037 -0.623,-0.067 -0.834,-0.031 -0.253,0.092 -0.444,0.315 -2.086,2.141 -0.63,1.586 -0.08,0.148 -0.283,0.136 -0.722,0.24 -0.408,0.087 -0.389,0.074 -0.21,0.006 -0.518,-0.26 -0.166,-0.11 -0.111,-0.136 -0.074,-0.352 -0.821,-0.87 -1.716,0.05 -0.117,0.166 -0.13,0.315 -2.37,2.4 -0.185,0.118 -0.641,0.376 -0.821,0.185 -0.39,-0.148 -1.64,-0.345 -2.79,0.549 -2.578,-0.212 -0.193,-0.202 -0.247,-0.296 -0.358,-0.58 -0.03,-1.179 -2.481,0.328 -0.66,0.123 -0.606,0.08 -0.228,-0.03 -1.166,-0.457 -0.334,-0.303 -1,-0.894 -3.091,-1.765 -1.376,0.456 -0.587,0.21 -0.067,0.16 0.01,0.161 -0.093,0.179 -0.105,0.148 -0.142,0.148 -0.154,0.13 -0.432,-0.062 -1,-0.352 -0.37,-0.148 -1.635,-0.962 -0.877,-1.463 -1.13,-0.932 -0.87,-0.493 -0.357,-0.167 -0.63,0.068 -6.19,2.82 -0.697,0.42 -0.302,0.283 0.012,0.16 0.13,0.137 0.098,0.166 -0.08,0.327 -0.53,0.327 -0.223,0.074 -3.857,0.617 -0.975,-0.012 -0.21,-0.043 -0.456,-0.148 -0.229,-0.111 -0.365,-0.38 0.692,-1.015 0.346,-1.567 0.432,-3.036 -0.518,-4.64 0.395,-2.568 0.043,-0.16 -0.093,-0.401 -1.185,-1.63 -0.185,-0.197 -0.136,-0.061 -0.438,-0.346 -0.845,-0.852 -0.05,-0.11 0.162,-0.287 1.69,0.052 0.296,-0.068 0.654,-0.309 0.562,-0.4 0.259,-0.315 0.315,-0.55 0.01,-0.222 0.018,-0.537 1.395,-1.585 0.093,-0.1 0.944,-0.715 0.574,-0.037 0.438,0.05 0.407,0.098 0.482,-0.055 1.067,-0.507 1.605,-1.197 1.783,-1.37 1.377,-1.234 1.74,-2.073 0.154,-0.21 0.154,-0.21 0.272,-0.475 0.059,-0.14 0.034,-0.082 -0.16,-0.296 -1.285,-0.994 -0.172,-0.117 -0.97,-0.45 -0.968,-0.198 -1.722,-0.166 -0.21,-0.013 -0.413,0.124 -0.364,0.179 -0.63,0.203 -0.191,-0.086 -0.74,-0.401 -0.266,-0.26 -0.019,-0.154 0.105,-1.487 0.432,-1.654 -0.456,-1.832 -1.012,-0.704 -0.186,0.105 -0.351,0.185 -1.537,0.087 -4.857,-0.18 -0.666,-0.104 -0.192,-0.074 -0.847,-0.469 0.286,-0.981 -0.53,-0.728 -0.661,-0.624 1.913,-2.08 0.16,-0.117 1.228,-0.882 0.365,-0.167 0.69,0.05 0.21,0.092 0.482,-0.203 1.197,-1.401 0.105,-0.315 0.117,-0.962 -0.037,-0.155 -1.536,-2.536 -0.093,-0.092 -0.31,-0.25 -2.128,-0.676 -0.21,-0.043 -0.654,0.074 -0.234,0.271 -0.05,0.16 -0.197,0.087 -2.074,-0.284 0.605,-4.208 0.099,-0.148 0.438,-0.47 0.994,-0.425 0.586,-0.13 0.216,0.019 0.21,-0.05 0.37,-0.19 0.142,-0.13 0.944,-0.926 0.136,-0.16 0.117,-0.463 -0.01,-0.154 -0.062,-0.167 -0.086,-0.154 -0.123,-0.136 -0.093,-0.148 0.025,-0.167 0.055,-0.154 0.58,-0.66 0.247,-0.118 0.37,-0.049 3.11,-0.296 0.673,0.025 0.648,0.098 0.369,0.126 0.73,0.09 0.216,-0.006 0.204,-0.055 1.697,-0.556 1.092,-1.197 0.42,-0.555 1.505,-0.315 2.16,0.518 2.364,-0.234 0.426,-0.099 0.389,-0.173 -0.056,-0.314 0.043,-0.327 0.16,-0.111 2.006,0.16 0.525,0.401 0.537,0.642 0.882,0.518 0.334,0.16 0.802,0.254 0.216,0.061 0.648,0.013 0.234,-0.007 0.655,-0.018 0.197,-0.093 0.16,-0.438 0.087,-0.345 0.099,-0.142 0.462,-0.55 0.37,-0.197 0.531,-0.105 0.241,0.019 0.438,0.098 0.105,0.142 0.414,0.142 1.888,0.395 0.21,0.025 2.765,-0.734 3.246,-0.79 1.327,-0.087 2.592,-0.703 0.179,-0.654 0.357,-0.599 0.173,-0.13 3.432,-1.209 0.253,-0.025 0.216,0.044 0.61,0.203 0.642,0.895 -0.08,0.136 -0.05,0.32 -0.024,0.87 0.056,0.186 0.185,0.34 0.13,0.135 2.116,1.851 0.327,0.074 2.543,-0.389 2.845,-0.536 0.425,-0.025 0.216,0.062 0.76,0.32 0.197,0.087 3.487,2.333 0.062,0.314 0.314,1.432 0.136,0.167 0.667,0.715 0.654,0.463 1.609,0.596 2.618,0.095 0.45,-0.055 2.76,-0.778 0.123,-0.142 0.08,-0.154 0.018,-0.16 -0.345,-2.327 -0.42,-0.444 -0.154,-0.136 -0.21,-0.055 -0.426,0.098 -0.154,0.315 -0.043,0.16 -0.186,0.112 -0.592,0.253 -0.401,0.11 -0.24,0.007 -0.23,-0.068 -0.19,-0.124 -0.149,-0.141 -0.123,-0.18 0.068,-0.32 0.55,-1.148 0.153,-0.16 0.167,-0.142 1.043,-0.618 1.4,-0.765 1.562,-0.543 0.92,-0.487 0.395,-0.21 0.166,-0.13 0.247,-0.308 0.08,-0.228 0.105,-0.142 0.5,-0.395 0.45,-0.013 2.006,0.543 0.39,0.149 0.197,0.104 0.432,0.075 1.049,0.024 0.426,-0.024 0.216,-0.031 0.462,-0.044 1.229,-0.48 0.629,-0.316 0.987,-0.512 0.519,-0.006 1.506,0.555 0.432,0.543 0.604,0.883 0.044,0.16 -0.186,1.5 1.512,0.641 2.11,1.21 0.106,0.247 -0.117,0.333 -0.13,0.062 -0.92,0.389 -1.134,0.02 -0.655,-0.075 -0.753,-0.087 -0.154,-0.124 0.037,-0.179 -0.18,-0.271 -0.215,-0.068 -0.432,-0.099 -0.68,-0.05 -0.24,0.02 -0.185,0.073 -0.82,0.975 -0.186,0.327 -0.086,0.173 0.136,0.13 1.005,0.857 0.352,0.192 0.185,-0.08 0.025,-0.173 1.96,-0.056 1.323,1.703 3.407,1.444 0.567,0.55 0.611,0.74 -0.703,0.333 -0.636,0.087 -0.222,-0.05 -0.13,-0.142 -0.296,-0.24 -0.265,-0.044 -1.086,-0.049 -0.76,0.043 -0.66,0.062 -0.21,0.05 -0.13,0.141 0.15,1.987 0.129,0.142 0.555,1.882 -0.025,0.16 -0.907,2.018 -0.012,1.685 0.018,0.5 -0.03,0.315 -0.204,0.469 -0.087,0.148 -0.123,0.13 -0.42,0.092 0.05,0.16 2.11,2.438 2.79,1.512 0.555,0.191 3.32,-0.062 3.395,0.346 1.394,-1.586 -0.01,-0.315 -0.01,-0.537 0.074,-0.16 1.432,-0.457 0.21,-0.05 1.518,-0.129 0.432,-0.006 0.69,0.043 0.674,0.05 2.116,0.685 1.278,0.802 -0.16,0.79 0.66,1.623 0.074,0.16 0.185,0.08 2.721,0.802 0.796,-0.086 0.241,-0.037 1.383,-0.623 0.246,-0.117 0.062,0.851 0.03,0.321 0.402,2.709 0.667,0.864 0.234,0.247 0.302,0.203 -0.123,0.346 -0.45,0.92 -0.186,0.16 -2.363,1.234 -0.229,0.062 -1.012,1.715 -1.456,1.981 -0.179,-0.093 -1.055,-0.24 -0.21,0.055 -0.167,0.124 -1.135,1.9 -0.185,0.636 0.592,2.808 2.117,1.067 z" />
      <path
         inkscape:connector-curvature="0"
         id="path1204"
         d="m 3905.388,955.628 0.055,-0.191 -0.438,-0.42 -0.42,0.013 -0.549,0.302 z m 3.258,-47.873 -0.08,-0.4 0.198,-0.075 0.234,0.013 0.105,0.141 0.018,0.155 -0.043,0.154 -0.08,0.148 -0.214,0.027 z m -1.475,-0.235 0.13,-0.16 0.21,0.031 0.148,0.124 -0.124,0.135 -0.21,0.06 z m 30.937,0.457 0.944,-0.055 0.691,0.111 3.53,0.685 0.914,2.19 0.018,0.254 -0.043,0.105 -0.271,0.08 -0.309,0.08 -2.104,-0.315 -3.117,-0.728 -1.623,-0.975 -0.185,-0.222 0.012,-0.358 0.062,-0.247 0.592,-0.524 0.21,-0.036 z m -4.659,4.345 0.018,-0.154 0.13,-0.204 0.228,0.092 -0.018,0.173 -0.15,0.188 z m 1.166,-0.062 0.019,-0.204 0.234,-0.092 0.154,0.105 -0.13,0.296 -0.218,0.052 z" />
    </g>
    <g
       transform="matrix(0.26458333,0,0,0.26458333,-987.00689,-218.58691)"
       style="fill:#ffffff;stroke:#000000"
       id="g1494">
      <path
         inkscape:connector-curvature="0"
         id="path1490"
         d="m 3898.71,965.242 0.08,-0.148 0.63,-1.586 2.086,-2.141 0.444,-0.315 0.253,-0.092 0.834,0.03 0.623,0.068 0.228,-0.037 0.185,-0.086 0.044,-1.425 -0.093,-0.932 -0.123,-0.432 0.012,-0.155 0.932,-1.19 2.536,-1.852 1.802,-2.092 0.556,-0.283 0.21,-0.044 0.178,0.112 0.377,0.166 0.204,-0.006 0.647,-0.093 0.18,-0.08 0.123,-0.13 0.586,-1.66 0.043,-0.154 -0.012,-0.16 -0.043,-0.16 -0.13,-0.136 0.327,-0.624 0.97,-0.975 3.616,-2.122 2.357,-1.691 0.74,-0.407 0.858,-0.148 0.253,0.018 0.013,0.216 0.043,0.222 1.166,1.024 1.105,0.982 0.84,0.907 0.11,0.142 0.031,0.172 -0.197,0.08 -0.198,0.05 -0.814,1.617 -0.494,1.327 -0.457,1.32 1.278,1.679 2.234,1.863 2.987,2.783 1.394,2.29 0.155,0.283 1.08,3.666 0.049,0.172 0.475,2.666 -0.13,0.315 -0.518,0.364 -0.203,0.111 -0.192,0.068 -0.432,0.074 -2.48,0.265 -1.405,0.041 -0.2,-0.238 -0.222,-0.302 -0.173,-0.105 -0.21,0.006 -0.654,0.068 -3.27,0.74 -2.463,1.086 -2.216,1.062 -0.253,-0.605 2.302,-1.654 0.198,-0.197 0.074,-0.1 0.247,-0.58 0.04,-0.388 -0.213,-0.197 -2.29,-0.654 -1.462,-0.414 -1.463,-0.475 -3.721,-1.32 -0.142,-0.124 -0.18,-0.093 -0.715,-0.283 -2.549,-0.58 -0.234,0.067 -0.982,0.322 -0.234,0.147 -2.037,0.525 -4.22,1.086 -0.217,-0.03 -0.413,-0.1 -0.21,-0.098 -0.154,-0.173 z" />
      <path
         inkscape:connector-curvature="0"
         id="path1492"
         d="m 3925.216,956.183 0.074,-0.21 -0.08,-0.061 -0.074,-0.019 -0.074,0.031 -0.16,0.136 -0.019,0.086 0.037,0.075 0.12,0.052 z m -21.18,-0.851 0.55,-0.302 0.42,-0.013 0.437,0.42 -0.055,0.191 -1.352,0.037 z" />
    </g>
    <g
       transform="matrix(0.26458333,0,0,0.26458333,-987.00689,-218.58691)"
       style="fill:#ffffff;stroke:#000000"
       id="g2200">
      <path
         inkscape:connector-curvature="0"
         id="path2198"
         d="m 3974.809,970.814 0.808,-0.012 1,-0.191 1.265,-0.087 0.235,0.031 0.222,0.08 1.018,0.377 0.506,0.697 -0.099,0.142 -0.105,0.333 0.21,0.926 0.173,0.11 0.389,0.174 0.401,0.043 0.222,-0.043 0.938,-0.519 -0.173,-0.567 -0.16,-0.111 -0.18,-0.315 -0.178,-0.574 0.111,-0.512 0.074,-0.155 0.105,-0.148 1.981,-1.265 0.426,-0.012 0.84,-0.074 1.45,-0.623 0.839,-1.376 0.086,-0.155 1.938,-2.017 0.814,-0.093 0.21,-0.043 0.809,-0.303 0.395,-0.246 1.512,-2.142 0.592,-3.758 -0.154,-1.104 -1.5,-0.815 0.846,-1.456 4.468,-1.765 0.191,0.124 1.265,0.654 1.975,0.395 0.84,-0.093 1.863,-0.234 0.413,-0.068 0.155,-0.173 0.58,0.154 1.228,0.402 0.413,0.154 0.334,0.24 0.148,0.13 -0.148,0.13 -0.173,0.104 -0.124,0.13 -0.11,0.148 -0.044,0.154 0.21,0.297 0.142,0.13 4.042,1.9 1.186,0.416 -1.346,1.811 -2.222,3.203 -0.086,0.099 -1.642,1.376 -1.5,1.178 -3.647,3.277 -0.062,0.105 -0.296,0.525 -1.555,2.542 -1.05,0.931 -0.505,0.507 -0.191,0.222 -1.407,1.832 -3.012,4.807 -0.13,0.216 -0.123,0.34 -0.247,1.203 -0.018,0.111 2.153,6.48 1.025,2.005 0.277,0.543 0.87,1.13 1.136,1.08 0.494,0.462 0.222,0.173 0.24,0.154 0.358,0.22 0.932,0.49 0.451,0.11 0.432,-0.036 0.142,-0.05 0.142,-0.012 0.142,0.03 0.413,0.118 1.364,0.593 1.062,0.5 0.13,0.092 0.308,0.969 -0.18,0.574 -0.956,0.771 -0.444,0.284 -2.277,1.037 -1.074,0.21 -0.24,0.135 -0.729,0.599 -0.111,0.098 -1.851,1.179 -0.29,0.05 -3.043,1.098 -0.265,0.104 -0.37,0.192 -0.124,0.068 -1.092,0.629 -0.327,0.24 -2.778,2.352 -1.968,3.104 -1.253,3.073 -2.055,3.437 -0.062,0.111 -0.166,0.562 -0.025,0.11 -0.01,0.245 -0.447,0.113 -0.197,-0.067 -0.92,-0.401 -0.185,-0.1 -1.117,-0.912 -0.136,-0.124 -0.475,-0.438 -0.123,-0.136 -2.179,-2.832 -0.092,-0.142 -0.29,-1.012 0.01,-0.16 0.099,-0.18 0.228,-0.32 0.296,-0.29 0.377,-0.414 0.179,-0.34 0.061,-0.178 0.303,-1.179 0.068,-0.314 -0.044,-0.167 -0.253,-0.636 -0.086,-0.185 -0.272,-0.253 -0.351,-0.216 -0.827,-0.222 -0.475,-0.019 -0.229,0.019 -0.117,-0.518 -0.019,-0.327 0.013,-1.093 0.043,-0.16 0.796,-0.605 0.401,-0.197 0.383,-0.432 0.247,-1.888 -0.47,-1.636 1,-0.03 0.457,-0.05 0.383,-0.105 0.907,-0.5 -0.24,-3.005 -0.167,-1.438 -0.815,-1.221 -0.204,-0.118 -0.438,-0.11 -0.222,-0.038 -0.235,0.044 -0.364,0.265 -0.407,0.043 -1.234,0.099 -1.025,-0.037 -2.598,-2.376 -0.105,-0.142 -0.08,-0.148 0.18,-0.944 0.536,-0.987 0.105,-0.142 0.271,-0.29 0.18,-0.08 0.147,-0.124 0.186,-0.352 0.265,-0.61 0.062,-0.174 0.388,-1.857 -0.216,-0.167 -0.141,-0.03 -0.284,0.024 -0.747,-0.08 -2.364,-0.469 -0.142,-0.037 -2.536,-0.827 -0.71,-0.925 -0.666,-0.87 0.142,-2.055 0.012,-0.044 0.117,-0.364 1.599,-1.79 0.29,-0.27 0.734,-0.5 0.204,-0.062 0.413,-0.006 0.167,0.13 0.364,0.154 0.197,0.061 0.42,-0.006 0.228,-0.025 0.365,-0.197 0.29,-0.26 1.012,-2.548 0.117,-0.308 0.216,-0.982 0.136,-1.024 1.11,-1.37 z m -6.807,-3.98 0.814,0.185 4.185,0.562 0.592,0.062 0.216,-0.05 0.204,-0.086 0.42,-0.019 0.178,0.08 1.111,0.803 0.321,0.24 0.117,0.315 -0.098,0.179 -0.124,0.13 -0.37,0.172 -0.864,0.34 -0.537,0.086 -0.543,0.154 -1.204,0.192 -0.432,-0.043 -2.64,-0.383 -1.71,-2.53 -0.031,-0.16 0.043,-0.16 0.167,-0.143 z" />
    </g>
    <g
       transform="matrix(0.26458333,0,0,0.26458333,-987.00689,-218.58691)"
       style="fill:#ffffff;stroke:#000000"
       id="g2422">
      <path
         inkscape:connector-curvature="0"
         id="path2418"
         d="m 3959.152,926.052 -0.426,0.61 -0.246,0.118 -1.383,0.623 -0.24,0.037 -0.587,0.086 -2.931,-0.802 -0.185,-0.08 -0.074,-0.16 -0.66,-1.623 0.16,-0.79 -1.278,-0.802 -2.116,-0.685 -0.673,-0.05 -0.691,-0.043 -0.432,0.006 -1.518,0.13 -0.21,0.05 -1.432,0.456 -0.074,0.16 0.01,0.537 0.01,0.315 -1.394,1.586 -3.395,-0.346 -3.32,0.062 -0.555,-0.191 -2.79,-1.512 -2.11,-2.438 -0.05,-0.16 0.42,-0.093 0.123,-0.13 0.087,-0.147 0.204,-0.47 0.03,-0.314 -0.018,-0.5 0.012,-1.685 0.907,-2.017 0.025,-0.16 -0.555,-1.883 -0.13,-0.142 -0.148,-1.987 0.13,-0.142 0.21,-0.049 0.66,-0.062 0.759,-0.043 1.086,0.05 0.265,0.043 0.297,0.24 0.13,0.142 0.221,0.05 0.636,-0.087 0.703,-0.333 0.395,1.475 0.315,0.4 0.111,0.075 0.938,-0.747 0.025,-0.16 -0.037,-0.185 0.025,-0.16 0.24,-0.285 0.216,-0.049 0.216,0.019 0.192,0.098 0.98,0.537 0.167,0.13 -0.012,0.327 -0.074,0.623 0.222,0.617 0.192,0.136 0.993,0.463 3.092,0.13 0.605,0.314 0.154,0.043 0.771,0.093 0.309,-0.05 0.45,-0.043 0.149,0.012 1.944,0.198 0.839,0.302 0.123,0.074 0.111,0.074 0.062,0.105 0.025,0.111 0.092,0.093 0.537,0.21 2.82,1.012 1.278,0.11 0.444,0.05 0.18,0.05 0.263,0.12 1.298,0.632 0.179,0.186 0.067,0.11 -0.049,0.217 0.019,0.11 1.493,1.025 1.938,0.74 0.84,0.216 0.37,0.173 0.364,0.37 0.067,0.161 0.118,0.685 -0.105,0.136 -0.185,0.086 -0.408,0.123 -0.216,-0.067 -0.105,-0.142 -0.185,-0.08 -0.216,-0.062 -1.357,-0.019 -0.445,0.031 -0.136,0.13 -1.468,1.45 -0.08,0.148 -0.075,0.685 0.192,0.32 0.969,0.52 z" />
      <path
         inkscape:connector-curvature="0"
         id="path2420"
         d="m 3933.807,912.23 0.018,-0.174 -0.228,-0.092 -0.13,0.204 -0.018,0.154 0.208,0.095 z m 1.086,0.135 0.13,-0.136 -0.155,-0.265 -0.234,0.092 -0.019,0.204 0.059,0.157 z" />
    </g>
    <path
       inkscape:connector-curvature="0"
       style="fill:#ffffff;stroke:#000000;stroke-width:0.26458332"
       id="path2580"
       d="m 66.615797,51.004464 -0.23839,0.3085 -0.0963,0.16007 -0.01,0.0291 0.0145,0.028 0.2548,0.27755 0.0556,0.0439 0.10451,0.0556 0.27093,0.10293 0.036,0.005 0.0751,-0.0373 0.0212,-0.0278 0.0474,-0.0196 0.0799,0.0667 -0.0685,0.0947 -0.0423,0.0556 -0.0931,0.0556 -0.0751,0.0212 -1.00409,0.245 -0.0392,0.005 -0.18124,-0.0259 -0.1389,-0.0998 -0.0212,-0.0243 -0.40323,-0.0132 -1.11865,0.023 -0.52256,0.10107 -0.13705,0.0508 -0.54054,0.32306 -0.0654,0.041 -0.0521,0.0489 -0.054,0.0799 -0.0701,0.14367 -0.01,0.0294 -0.14023,0.0833 -0.34316,0.1307 -0.38577,0.13415 -0.0436,-0.0397 -0.14023,-0.0913 -0.3937,-0.23522 -0.16669,-0.0373 -0.22013,-0.0378 -0.0476,0.023 -0.23653,-0.0979 -0.49319,-0.56673 -0.12911,-0.15664 -0.2921,-0.36565 -0.023,-0.0881 -0.008,-0.0931 0.0161,-0.63341 0.0587,-0.31036 0.0328,-0.0439 -0.13388,-0.14393 -0.55192,-0.10584 -0.37227,0.005 -0.37386,-0.19923 -0.0423,-0.0344 -0.25162,-0.23178 -0.33338,-0.33311 0.007,-0.0259 0.0503,-0.17462 0.0281,-0.0394 0.60722,-0.72496 0.036,-0.0344 0.21405,-0.15822 0.6514,-0.37703 0.3347,-0.01 0.0931,0.0669 0.0587,0.003 0.38868,-0.0733 0.10768,-0.0344 0.0963,-0.0423 0.55536,-0.29396 0.60246,0.0654 0.0227,0.0603 0.0505,0.054 0.0328,0.0161 0.12409,0.0458 0.0717,0.0164 0.26961,-0.008 0.11244,-0.0392 0.10134,-0.0587 0.37227,-0.28258 0.0328,-0.0344 0.0278,-0.0407 0.0161,-0.0947 -0.0458,-0.46831 -0.0439,-0.1323 -0.0476,-0.09 -0.0228,-0.0834 0.30533,-0.67918 0.13071,-0.14023 0.0328,-0.0344 0.19896,-0.10927 0.0556,-0.0196 0.81333,-0.21881 0.41143,-0.10134 0.32173,0.0931 0.0423,0.0325 -0.0114,0.0476 -0.005,0.0455 0.0376,0.0799 0.16669,0.1143 0.33311,0.19103 0.12409,0.43286 -0.0653,0.49953 -0.10134,0.1143 -0.10609,0.0521 -0.21061,0.16007 -0.0114,0.0423 -0.003,0.0884 0.005,0.28734 0.0309,0.13705 0.0606,-0.005 0.12568,0.005 0.21881,0.0587 0.0929,0.0571 0.072,0.0669 0.0227,0.049 0.0669,0.16827 0.0116,0.0442 -0.018,0.0831 -0.0802,0.31194 -0.0161,0.0474 -0.0476,0.09 -0.0995,0.10927 -0.0783,0.0767 -0.0603,0.0847 -0.0265,0.0476 -0.003,0.0423 0.0767,0.26776 0.0243,0.0376 0.57653,0.7493 0.0325,0.036 0.12568,0.11588 0.036,0.0328 0.29554,0.24157 0.0489,0.0262 0.24341,0.10583 0.0521,0.018 0.11827,-0.0299 z"
       sodipodi:nodetypes="ccccccccccccccccccccccccccccccccccccccccccccccccccccccccccccccccccccccccccccccccccccccccccccccccccccccccccccccccccccccccccccccccccccccccccccc" />
    <g
       transform="matrix(0.26458333,0,0,0.26458333,-987.00689,-218.58691)"
       style="fill:#ffffff;stroke:#000000"
       id="g3244">
      <path
         inkscape:connector-curvature="0"
         id="path3240"
         d="m 3923.513,899.11 -0.142,-0.808 0.08,-0.142 2.617,-1.45 2.259,-0.18 0.142,0.315 0.086,0.149 0.222,0.061 1.012,-0.407 0.185,-0.08 0.124,-0.315 -0.094,-0.665 2.852,-0.088 0.438,-0.574 1.358,-1.16 0.303,-0.006 1.586,0.068 1.08,0.055 1.604,0.087 3.783,0.802 1.142,0.26 0.148,0.042 0.389,0.34 0.092,0.11 0.463,0.34 0.278,0.142 2.178,0.642 0.142,0.03 1.16,0.186 2.784,0.111 1.073,-0.123 3.271,-0.796 3.012,-1.068 0.987,-0.247 0.155,-0.012 0.154,0.074 v 0.643 l 0.087,0.387 1.035,0.967 -1.504,0.983 -1.4,0.636 -0.908,1.833 -3.018,2.9 -3.036,1.58 -1.345,1.968 -0.037,0.191 -2.006,2.586 -1.376,1.549 -0.45,-0.087 -0.21,0.093 -0.568,0.29 -1.148,0.753 -0.019,0.222 0.025,0.154 0.296,0.247 0.698,0.26 0.21,-0.08 0.166,-0.112 0.031,-0.179 0.204,-0.315 0.432,0.105 0.117,0.136 0.234,0.66 -0.03,0.16 -0.235,0.97 -0.08,0.16 -0.117,0.142 -0.167,0.111 -1.512,0.154 -3.092,-0.13 -0.993,-0.462 -0.192,-0.136 -0.222,-0.617 0.074,-0.623 0.012,-0.327 -0.166,-0.13 -0.981,-0.537 -0.192,-0.098 -0.216,-0.019 -0.216,0.05 -0.24,0.283 -0.025,0.16 0.037,0.186 -0.025,0.16 -0.938,0.747 -0.11,-0.074 -0.316,-0.401 -0.395,-1.475 -0.61,-0.74 -0.568,-0.55 -3.407,-1.444 -1.323,-1.703 -1.96,0.056 -0.025,0.173 -0.185,0.08 -0.352,-0.192 -1.005,-0.857 -0.136,-0.13 0.086,-0.173 0.185,-0.327 0.821,-0.975 0.185,-0.074 0.24,-0.018 0.68,0.049 0.432,0.099 0.216,0.068 0.179,0.11 -0.037,0.34 0.154,0.124 0.753,0.087 0.53,0.074 1.26,-0.02 0.92,-0.388 0.129,-0.062 0.117,-0.222 -0.105,-0.358 -2.11,-1.21 -1.513,-0.641 0.186,-1.5 -0.044,-0.16 -0.604,-0.883 -0.432,-0.543 -1.506,-0.555 -0.519,0.006 -0.987,0.512 -0.63,0.315 -1.228,0.481 -0.296,0.044 z" />
      <path
         inkscape:connector-curvature="0"
         id="path3242"
         d="m 3937.22,908.058 -0.593,0.524 -0.062,0.247 -0.012,0.358 0.185,0.222 1.623,0.975 3.117,0.728 2.104,0.315 0.309,-0.08 0.271,-0.08 0.043,-0.105 -0.018,-0.253 -0.914,-2.191 -3.53,-0.685 -0.69,-0.111 -0.945,0.055 -0.679,0.045 z m -10.004,-9.17 0.154,-0.154 0.352,-0.975 -0.043,-0.154 -0.155,-0.124 -0.222,-0.019 -0.444,0.087 -0.16,0.154 0.104,0.84 0.099,0.32 0.116,0.152 z" />
    </g>
    <g
       transform="matrix(0.26458333,0,0,0.26458333,-987.00689,-218.58691)"
       style="fill:#ffffff;stroke:#000000"
       id="g764">
      <path
         inkscape:connector-curvature="0"
         id="path760"
         d="m 3983.226,905.145 -0.438,0.03 -0.907,0.427 -0.82,1.24 -0.038,0.327 0.056,0.16 0.092,0.167 0.019,0.16 -0.019,0.531 -0.296,0.457 -0.123,0.123 -4.24,2.63 -2.561,1.017 -1.969,0.889 -0.333,0.426 -1.253,2.215 -0.148,0.333 -1.185,3.06 -0.364,1.142 0.093,0.92 0.21,1.586 0.962,1.092 0.198,0.074 0.21,0.037 0.222,-0.055 0.203,0.037 0.167,0.123 0.043,0.167 -0.055,0.21 -0.148,0.326 -1.494,1.994 -0.969,0.63 -2.709,0.042 -0.204,-0.018 -0.407,-0.118 -0.518,-0.302 -3.968,-1.444 -1.42,-0.185 -0.271,0.037 -0.97,-0.518 -0.19,-0.321 0.073,-0.685 0.08,-0.148 1.47,-1.45 0.135,-0.13 0.445,-0.03 1.357,0.018 0.216,0.061 0.185,0.08 0.105,0.143 0.216,0.067 0.408,-0.123 0.185,-0.086 0.105,-0.136 -0.118,-0.685 -0.067,-0.16 -0.365,-0.37 -0.37,-0.174 -0.84,-0.215 -1.937,-0.74 -1.493,-1.025 -0.019,-0.111 0.05,-0.105 -0.068,-0.222 -0.18,-0.186 -1.297,-0.632 -0.264,-0.12 -0.179,-0.05 -0.444,-0.05 -1.277,-0.11 -2.82,-1.012 -0.538,-0.21 -0.092,-0.093 -0.025,-0.11 -0.062,-0.106 -0.11,-0.074 -0.124,-0.074 -0.84,-0.302 -1.943,-0.198 -0.149,-0.012 -0.45,0.043 -0.16,0.05 -0.92,-0.093 -0.154,-0.043 -0.605,-0.315 1.512,-0.154 0.167,-0.111 0.117,-0.142 0.08,-0.16 0.235,-0.97 0.03,-0.16 -0.234,-0.66 -0.117,-0.136 -0.432,-0.105 -0.204,0.315 -0.03,0.179 -0.168,0.111 -0.21,0.08 -0.697,-0.259 -0.296,-0.247 -0.025,-0.154 0.019,-0.222 1.148,-0.753 0.568,-0.29 0.21,-0.093 0.45,0.087 1.376,-1.55 2.006,-2.585 0.037,-0.19 1.345,-1.97 3.036,-1.58 3.018,-2.9 0.907,-1.832 1.401,-0.636 1.504,-0.983 0.422,-0.115 0.413,-0.08 0.827,-0.037 3.376,0.481 2.104,0.327 0.389,0.229 0.16,0.215 0.037,0.13 -0.01,0.654 -0.05,0.358 -0.585,1.444 -0.241,0.29 -0.16,0.16 -0.494,0.297 -0.383,0.16 -0.08,0.105 0.043,0.117 0.457,0.648 0.092,0.111 0.253,0.136 0.149,0.043 0.66,0.124 0.84,0.142 0.302,-0.068 0.08,-0.1 0.95,-0.721 2.216,0.574 2.838,0.876 1.76,0.673 1.048,0.45 0.272,0.074 2.567,0.142 0.623,-0.142 0.08,-0.099 0.445,-0.172 0.154,-0.031 0.297,0.012 0.086,0.099 0.413,0.53 0.031,0.328 -0.012,0.079 z" />
      <path
         inkscape:connector-curvature="0"
         id="path762"
         d="m 3975.42,915.84 -0.408,-0.1 -0.11,-0.136 0.061,-0.185 0.333,-0.425 0.278,-0.13 0.21,0.093 0.284,0.234 0.592,0.543 0.025,0.16 -0.336,0.16 z m -1.932,0.77 0.198,-0.5 0.555,-0.222 0.253,0.112 -0.204,0.456 -0.376,0.16 -0.233,0.07 z" />
    </g>
  </g>
</svg>
